# xmcd CD database file
#
# Track frame offsets:
#	187
#	21262
#	43125
#	64162
#
# Disc length: 1146 seconds
#
# Revision: 0
# Processed by: cddbd v1.5.1PL0 Copyright (c) Steve Scherf et al.
# Submitted via: CDex 1.50beta8
#
DISCID=32047804
DTITLE=高橋由美子 - そんなのムリ！
DYEAR=1994
DGENRE=JPop
TTITLE0=そんなのムリ！
TTITLE1=想い出あげない
TTITLE2=そんなのムリ！(ins)
TTITLE3=想い出あげない (ins)
EXTD=YEAR: 1994/06/24
EXTT0=
EXTT1=
EXTT2=
EXTT3=
PLAYORDER=
